<?xml version="1.0" encoding="UTF-8"?>
<svg width="512px" height="512px" viewBox="0 0 512 512" version="1.1" xmlns="http://www.w3.org/2000/svg" xmlns:xlink="http://www.w3.org/1999/xlink">
    <!-- Generator: Sketch 64 (93537) - https://sketch.com -->
    <title>IA</title>
    <desc>Created with Sketch.</desc>
    <g id="IA" stroke="none" stroke-width="1" fill="none" fill-rule="evenodd" transform="translate(0.000000, 0.000000)">
        <g id="brain-(1)-copy" transform="translate(8.000000, 8.000000)" fill-rule="nonzero">
            <circle id="Oval" fill="#80B7E4" cx="248.004" cy="200" r="120"></circle>
            <path d="M480.004,241.472 L480.004,174.52 C489.292,171.208 496.004,162.408 496.004,151.992 C496.004,138.76 485.236,127.992 472.004,127.992 C469.252,127.992 466.644,128.552 464.18,129.408 L428.332,84.592 C430.62,80.936 432.004,76.64 432.004,72 C432.004,58.768 421.236,48 408.004,48 C401.276,48 395.212,50.8 390.844,55.272 L327.78,26.168 C327.852,25.44 328.004,24.744 328.004,24 C328.004,10.768 317.236,0 304.004,0 C293.588,0 284.788,6.712 281.476,16 L190.532,16 C187.22,6.712 178.42,0 168.004,0 C154.772,0 144.004,10.768 144.004,24 C144.004,24.992 144.18,25.944 144.3,26.904 L104.62,46.744 C100.3,42.592 94.46,40 88.004,40 C74.772,40 64.004,50.768 64.004,64 C64.004,68.64 65.388,72.936 67.668,76.608 L31.82,121.416 C29.356,120.56 26.756,120 24.004,120 C10.772,120 0.004,130.768 0.004,144 C0.004,154.416 6.716,163.216 16.004,166.528 L16.004,217.48 C6.716,220.784 0.004,229.584 0.004,240 C0.004,253.232 10.772,264 24.004,264 C32.892,264 40.572,259.088 44.724,251.896 L88.396,259.84 C90.244,271.24 100.084,280 112.004,280 C112.332,280 112.628,279.92 112.948,279.904 L128.212,318.064 C123.22,322.472 120.004,328.832 120.004,336 C120.004,349.232 130.772,360 144.004,360 C152.052,360 159.148,355.984 163.5,349.888 L232.156,369.504 C232.772,379.248 239.172,387.376 248.004,390.528 L248.004,449.48 C238.716,452.792 232.004,461.592 232.004,472.008 C232.004,485.24 242.772,496.008 256.004,496.008 C269.236,496.008 280.004,485.24 280.004,472.008 C280.004,461.592 273.292,452.792 264.004,449.48 L264.004,390.528 C273.292,387.216 280.004,378.416 280.004,368 C280.004,360.336 276.324,353.568 270.708,349.176 L280.26,320.52 L352.044,344.448 C352.236,354.664 358.844,363.256 367.996,366.52 L367.996,449.472 C358.708,452.784 351.996,461.584 351.996,472 C351.996,485.232 362.764,496 375.996,496 C389.228,496 399.996,485.232 399.996,472 C399.996,461.584 393.284,452.784 383.996,449.472 L383.996,366.528 C393.284,363.216 399.996,354.416 399.996,344 C399.996,341.08 399.396,338.312 398.436,335.72 L459.82,284.568 C463.404,286.696 467.54,288 472.004,288 C485.236,288 496.004,277.232 496.004,264 C496.004,253.584 489.292,244.784 480.004,241.472 Z M135.956,255.552 C135.94,254.592 135.796,253.672 135.668,252.744 L201.292,218.72 L221.588,284.104 L135.956,255.552 Z M118.1,232.88 L107.012,147.856 L161.836,145.112 C165.316,153.544 173.468,159.512 183.052,159.896 L196.484,203.184 L128.348,238.512 C125.484,235.848 121.988,233.912 118.1,232.88 Z M46.18,134.88 C45.676,133.656 45.028,132.504 44.332,131.392 L80.18,86.584 C81.108,86.904 82.02,87.248 82.988,87.456 L88.9,132.744 L46.18,134.88 Z M98.844,85.296 C106.62,81.32 112.004,73.312 112.004,64 C112.004,63.008 111.828,62.056 111.708,61.096 L151.388,41.256 C155.708,45.408 161.548,48 168.004,48 C172.916,48 177.484,46.504 181.292,43.96 L230.972,81.216 L195.004,114.784 C191.692,113.072 187.988,112 184.004,112 C173.172,112 164.1,119.256 161.124,129.136 L104.932,131.944 L98.844,85.296 Z M282.028,33.576 L242.852,70.136 L191.996,32 L281.476,32 C281.668,32.528 281.804,33.064 282.028,33.576 Z M304.332,147.264 L239.956,180.648 L205.596,146.288 C207.092,143.152 208.004,139.696 208.004,136 C208.004,132.592 207.268,129.368 205.988,126.432 L243.972,90.976 L305.196,136.896 C304.492,139.152 304.004,141.512 304.004,144 C304.004,145.12 304.188,146.184 304.332,147.264 Z M192.004,136 C192.004,140.408 188.42,144 184.004,144 C179.588,144 176.004,140.408 176.004,136 C176.004,131.592 179.588,128 184.004,128 C188.42,128 192.004,131.592 192.004,136 Z M225.06,188.368 L210.908,195.704 L201.236,164.544 L225.06,188.368 Z M215.724,211.232 L236.924,200.24 L274.404,237.72 C272.916,240.848 272.004,244.304 272.004,248 C272.004,255.672 275.684,262.432 281.3,266.824 L270.148,300.28 L240.276,290.32 L215.724,211.232 Z M296.004,256 C291.588,256 288.004,252.408 288.004,248 C288.004,243.592 291.588,240 296.004,240 C300.42,240 304.004,243.592 304.004,248 C304.004,252.408 300.42,256 296.004,256 Z M296.004,224 C292.308,224 288.852,224.904 285.724,226.408 L251.828,192.512 L311.668,161.48 C315.956,165.496 321.676,168 328.004,168 C332.468,168 336.604,166.696 340.188,164.56 L376.612,194.912 L311.948,230.184 C307.692,226.384 302.148,224 296.004,224 Z M396.628,93 C400.028,94.856 403.868,96 408.004,96 C410.756,96 413.356,95.44 415.82,94.584 L451.668,139.4 C449.388,143.072 448.004,147.36 448.004,152 C448.004,153.288 448.188,154.536 448.388,155.768 L391.724,186.68 L350.444,152.28 C351.404,149.688 352.004,146.92 352.004,144 C352.004,140.744 351.34,137.648 350.164,134.816 L396.628,93 Z M459.828,243.432 L404.94,197.688 L456.068,169.8 C458.364,171.864 461.044,173.464 464.012,174.52 L464.012,241.472 C462.54,242 461.148,242.648 459.828,243.432 Z M336.004,144 C336.004,148.408 332.42,152 328.004,152 C323.588,152 320.004,148.408 320.004,144 C320.004,139.592 323.588,136 328.004,136 C332.42,136 336.004,139.592 336.004,144 Z M389.828,205.936 L447.156,253.712 L322.948,242.416 L389.828,205.936 Z M480.004,152 C480.004,156.408 476.42,160 472.004,160 C467.588,160 464.004,156.408 464.004,152 C464.004,147.592 467.588,144 472.004,144 C476.42,144 480.004,147.592 480.004,152 Z M408.004,64 C412.42,64 416.004,67.592 416.004,72 C416.004,76.408 412.42,80 408.004,80 C403.588,80 400.004,76.408 400.004,72 C400.004,67.592 403.588,64 408.004,64 Z M384.22,69.832 C384.156,70.56 384.004,71.256 384.004,72 C384.004,75.256 384.668,78.352 385.844,81.184 L339.372,123 C335.98,121.144 332.14,120 328.004,120 C323.092,120 318.524,121.496 314.716,124.04 L255.852,79.888 L293.012,45.208 C296.316,46.936 300.02,48 304.004,48 C310.732,48 316.804,45.2 321.164,40.728 L384.22,69.832 Z M304.004,16 C308.42,16 312.004,19.592 312.004,24 C312.004,28.408 308.42,32 304.004,32 C299.588,32 296.004,28.408 296.004,24 C296.004,19.592 299.588,16 304.004,16 Z M168.004,16 C172.42,16 176.004,19.592 176.004,24 C176.004,28.408 172.42,32 168.004,32 C163.588,32 160.004,28.408 160.004,24 C160.004,19.592 163.588,16 168.004,16 Z M88.004,56 C92.42,56 96.004,59.592 96.004,64 C96.004,68.408 92.42,72 88.004,72 C83.588,72 80.004,68.408 80.004,64 C80.004,59.592 83.588,56 88.004,56 Z M24.004,136 C28.42,136 32.004,139.592 32.004,144 C32.004,148.408 28.42,152 24.004,152 C19.588,152 16.004,148.408 16.004,144 C16.004,139.592 19.588,136 24.004,136 Z M24.004,248 C19.588,248 16.004,244.408 16.004,240 C16.004,235.592 19.588,232 24.004,232 C28.42,232 32.004,235.592 32.004,240 C32.004,244.408 28.42,248 24.004,248 Z M32.004,217.472 L32.004,166.52 C39.156,163.968 44.684,158.168 46.884,150.856 L90.98,148.648 L102.132,234.168 C97.54,236.248 93.788,239.752 91.284,244.088 L47.62,236.16 C46.204,227.456 40.124,220.368 32.004,217.472 Z M104.004,256 C104.004,251.592 107.588,248 112.004,248 C116.42,248 120.004,251.592 120.004,256 C120.004,260.408 116.42,264 112.004,264 C107.588,264 104.004,260.408 104.004,256 Z M127.796,273.928 C128.908,272.952 129.916,271.872 130.828,270.704 L227.428,302.904 L241.692,348.848 C239.708,350.336 237.948,352.088 236.508,354.104 L167.852,334.488 C167.06,321.976 156.724,312 144.004,312 C143.684,312 143.38,312.08 143.068,312.096 L127.796,273.928 Z M144.004,344 C139.588,344 136.004,340.408 136.004,336 C136.004,331.592 139.588,328 144.004,328 C148.42,328 152.004,331.592 152.004,336 C152.004,340.408 148.42,344 144.004,344 Z M256.004,480 C251.588,480 248.004,476.408 248.004,472 C248.004,467.592 251.588,464 256.004,464 C260.42,464 264.004,467.592 264.004,472 C264.004,476.408 260.42,480 256.004,480 Z M256.004,376 C251.588,376 248.004,372.408 248.004,368 C248.004,363.592 251.588,360 256.004,360 C260.42,360 264.004,363.592 264.004,368 C264.004,372.408 260.42,376 256.004,376 Z M256.276,341.888 L246.108,309.136 L265.084,315.464 L256.276,341.888 Z M296.452,271.952 C305.908,271.776 314.004,266.112 317.748,258.008 L448.836,269.928 C449.044,270.728 449.284,271.512 449.564,272.28 L388.18,323.432 C384.596,321.304 380.468,320 376.004,320 C368.34,320 361.572,323.68 357.18,329.296 L285.324,305.344 L296.452,271.952 Z M376.004,480 C371.588,480 368.004,476.408 368.004,472 C368.004,467.592 371.588,464 376.004,464 C380.42,464 384.004,467.592 384.004,472 C384.004,476.408 380.42,480 376.004,480 Z M376.004,352 C371.588,352 368.004,348.408 368.004,344 C368.004,339.592 371.588,336 376.004,336 C380.42,336 384.004,339.592 384.004,344 C384.004,348.408 380.42,352 376.004,352 Z M472.004,272 C467.588,272 464.004,268.408 464.004,264 C464.004,259.592 467.588,256 472.004,256 C476.42,256 480.004,259.592 480.004,264 C480.004,268.408 476.42,272 472.004,272 Z" id="Shape" fill="#000000"></path>
        </g>
    </g>
</svg>